<?xml version="1.0" encoding="UTF-8"?>
<!DOCTYPE svg PUBLIC "-//W3C//DTD SVG 1.1//EN" "http://www.w3.org/Graphics/SVG/1.1/DTD/svg11.dtd">
<!-- Creator: CorelDRAW X6 -->
<svg xmlns="http://www.w3.org/2000/svg" xml:space="preserve" width="221.897mm" height="285.397mm" version="1.1" style="shape-rendering:geometricPrecision; text-rendering:geometricPrecision; image-rendering:optimizeQuality; fill-rule:evenodd; clip-rule:evenodd"
viewBox="0 0 221897 285397"
 xmlns:xlink="http://www.w3.org/1999/xlink">
 <defs>
  <style type="text/css">
   <![CDATA[
    .str0 {stroke:#ED3237;stroke-width:176.3}
    .str1 {stroke:#2B2E45;stroke-width:1000}
    .fil3 {fill:none}
    .fil1 {fill:#322F6A}
    .fil2 {fill:#ED3237}
    .fil0 {fill:#FEFEFE}
   ]]>
  </style>
 </defs>
 <g id="Layer_x0020_1">
  <metadata id="CorelCorpID_0Corel-Layer"/>
  <path class="fil0" d="M74892 63554l47179 0c4793,0 8714,3996 8714,8881l0 60542c0,4884 -3921,8881 -8714,8881l-47179 0c-4793,0 -8714,-3997 -8714,-8881l0 -60542c0,-4885 3921,-8881 8714,-8881z"/>
  <polygon class="fil1" points="76230,72895 93104,72895 93104,115742 76230,115742 "/>
  <polygon class="fil1" points="102892,72895 119766,72895 119766,115742 102892,115742 "/>
  <polygon class="fil2 str0" points="88880,99485 126852,93001 126852,97226 88880,103710 "/>
  <polygon class="fil2 str0" points="88880,94188 126852,87658 126852,91237 88880,97768 "/>
  <polygon class="fil2 str0" points="88880,89754 126852,83193 126852,85900 88880,92462 "/>
  <polygon class="fil2 str0" points="88880,85909 126852,79503 126852,81909 88880,88315 "/>
  <rect class="fil3 str1" x="68713" y="65954" width="62072" height="56593" rx="5422" ry="5422"/>
 </g>
</svg>
